<svg width="262" height="19" viewBox="0 0 262 19" fill="none" xmlns="http://www.w3.org/2000/svg">
<path d="M1.27999 18.0001C1.10399 18.0001 0.959993 17.9441 0.847993 17.8321C0.735993 17.7201 0.679993 17.5761 0.679993 17.4001V1.80011C0.679993 1.62411 0.735993 1.48011 0.847993 1.36811C0.959993 1.25611 1.10399 1.20011 1.27999 1.20011H3.82399C4.09599 1.20011 4.28799 1.26411 4.39999 1.39211C4.52799 1.50411 4.60799 1.59211 4.63999 1.65611L10.496 10.8961V1.80011C10.496 1.62411 10.552 1.48011 10.664 1.36811C10.776 1.25611 10.92 1.20011 11.096 1.20011H13.976C14.152 1.20011 14.296 1.25611 14.408 1.36811C14.52 1.48011 14.576 1.62411 14.576 1.80011V17.4001C14.576 17.5601 14.52 17.7041 14.408 17.8321C14.296 17.9441 14.152 18.0001 13.976 18.0001H11.408C11.152 18.0001 10.96 17.9361 10.832 17.8081C10.72 17.6801 10.648 17.5921 10.616 17.5441L4.75999 8.66411V17.4001C4.75999 17.5761 4.70399 17.7201 4.59199 17.8321C4.47999 17.9441 4.33599 18.0001 4.15999 18.0001H1.27999Z" fill="white"/>
<path d="M16.97 18.0001C16.842 18.0001 16.722 17.9521 16.61 17.8561C16.514 17.7441 16.466 17.6241 16.466 17.4961C16.466 17.4161 16.474 17.3441 16.49 17.2801L22.13 1.87211C22.178 1.69611 22.274 1.54411 22.418 1.41611C22.578 1.27211 22.794 1.20011 23.066 1.20011H26.618C26.89 1.20011 27.098 1.27211 27.242 1.41611C27.402 1.54411 27.506 1.69611 27.554 1.87211L33.17 17.2801C33.202 17.3441 33.218 17.4161 33.218 17.4961C33.218 17.6241 33.162 17.7441 33.05 17.8561C32.954 17.9521 32.834 18.0001 32.69 18.0001H29.738C29.498 18.0001 29.314 17.9441 29.186 17.8321C29.074 17.7041 29.002 17.5921 28.97 17.4961L28.034 15.0481H21.626L20.714 17.4961C20.682 17.5921 20.61 17.7041 20.498 17.8321C20.386 17.9441 20.194 18.0001 19.922 18.0001H16.97ZM22.61 11.5921H27.074L24.818 5.25611L22.61 11.5921Z" fill="white"/>
<path d="M35.7097 18.0001C35.5497 18.0001 35.4057 17.9441 35.2777 17.8321C35.1657 17.7201 35.1097 17.5761 35.1097 17.4001V1.80011C35.1097 1.62411 35.1657 1.48011 35.2777 1.36811C35.4057 1.25611 35.5497 1.20011 35.7097 1.20011H38.3017C38.5577 1.20011 38.7497 1.27211 38.8777 1.41611C39.0217 1.54411 39.1097 1.64811 39.1417 1.72811L43.3657 9.31211L47.5897 1.72811C47.6377 1.64811 47.7177 1.54411 47.8297 1.41611C47.9577 1.27211 48.1577 1.20011 48.4297 1.20011H50.9977C51.1737 1.20011 51.3177 1.25611 51.4297 1.36811C51.5577 1.48011 51.6217 1.62411 51.6217 1.80011V17.4001C51.6217 17.5761 51.5577 17.7201 51.4297 17.8321C51.3177 17.9441 51.1737 18.0001 50.9977 18.0001H48.1417C47.9657 18.0001 47.8137 17.9441 47.6857 17.8321C47.5737 17.7201 47.5177 17.5761 47.5177 17.4001V8.40011L44.8057 13.4161C44.7417 13.5601 44.6457 13.6881 44.5177 13.8001C44.3897 13.9121 44.2137 13.9681 43.9897 13.9681H42.7417C42.5177 13.9681 42.3417 13.9121 42.2137 13.8001C42.0857 13.6881 41.9817 13.5601 41.9017 13.4161L39.1897 8.40011V17.4001C39.1897 17.5761 39.1337 17.7201 39.0217 17.8321C38.9097 17.9441 38.7657 18.0001 38.5897 18.0001H35.7097Z" fill="white"/>
<path d="M54.0012 18.0001C53.8732 18.0001 53.7532 17.9521 53.6412 17.8561C53.5452 17.7441 53.4972 17.6241 53.4972 17.4961C53.4972 17.4161 53.5052 17.3441 53.5212 17.2801L59.1612 1.87211C59.2092 1.69611 59.3052 1.54411 59.4492 1.41611C59.6092 1.27211 59.8252 1.20011 60.0972 1.20011H63.6492C63.9212 1.20011 64.1292 1.27211 64.2732 1.41611C64.4332 1.54411 64.5372 1.69611 64.5852 1.87211L70.2012 17.2801C70.2332 17.3441 70.2492 17.4161 70.2492 17.4961C70.2492 17.6241 70.1932 17.7441 70.0812 17.8561C69.9852 17.9521 69.8652 18.0001 69.7212 18.0001H66.7692C66.5292 18.0001 66.3452 17.9441 66.2172 17.8321C66.1052 17.7041 66.0332 17.5921 66.0012 17.4961L65.0652 15.0481H58.6572L57.7452 17.4961C57.7132 17.5921 57.6412 17.7041 57.5292 17.8321C57.4172 17.9441 57.2252 18.0001 56.9532 18.0001H54.0012ZM59.6412 11.5921H64.1052L61.8492 5.25611L59.6412 11.5921Z" fill="white"/>
<path d="M72.7409 18.0001C72.5649 18.0001 72.4209 17.9441 72.3089 17.8321C72.1969 17.7201 72.1409 17.5761 72.1409 17.4001V1.80011C72.1409 1.62411 72.1969 1.48011 72.3089 1.36811C72.4209 1.25611 72.5649 1.20011 72.7409 1.20011H75.2849C75.5569 1.20011 75.7489 1.26411 75.8609 1.39211C75.9889 1.50411 76.0689 1.59211 76.1009 1.65611L81.9569 10.8961V1.80011C81.9569 1.62411 82.0129 1.48011 82.1249 1.36811C82.2369 1.25611 82.3809 1.20011 82.5569 1.20011H85.4369C85.6129 1.20011 85.7569 1.25611 85.8689 1.36811C85.9809 1.48011 86.0369 1.62411 86.0369 1.80011V17.4001C86.0369 17.5601 85.9809 17.7041 85.8689 17.8321C85.7569 17.9441 85.6129 18.0001 85.4369 18.0001H82.8689C82.6129 18.0001 82.4209 17.9361 82.2929 17.8081C82.1809 17.6801 82.1089 17.5921 82.0769 17.5441L76.2209 8.66411V17.4001C76.2209 17.5761 76.1649 17.7201 76.0529 17.8321C75.9409 17.9441 75.7969 18.0001 75.6209 18.0001H72.7409Z" fill="white"/>
<path d="M96.3269 18.2401C94.8069 18.2401 93.4949 17.9921 92.3909 17.4961C91.3029 16.9841 90.4549 16.2481 89.8469 15.2881C89.2549 14.3121 88.9269 13.1281 88.8629 11.7361C88.8469 11.0481 88.8389 10.3201 88.8389 9.55211C88.8389 8.76811 88.8469 8.02411 88.8629 7.32011C88.9269 5.96011 89.2629 4.80811 89.8709 3.86411C90.4789 2.92011 91.3349 2.20011 92.4389 1.70411C93.5429 1.20811 94.8389 0.960109 96.3269 0.960109C97.5269 0.960109 98.5909 1.11211 99.5189 1.41611C100.447 1.70411 101.223 2.09611 101.847 2.59211C102.487 3.08811 102.967 3.63211 103.287 4.22411C103.623 4.81611 103.799 5.40011 103.815 5.97611C103.831 6.12011 103.783 6.24011 103.671 6.33611C103.575 6.43211 103.455 6.48011 103.311 6.48011H99.8069C99.6309 6.48011 99.4949 6.45611 99.3989 6.40811C99.3189 6.34411 99.2469 6.25611 99.1829 6.14411C99.0709 5.90411 98.9029 5.65611 98.6789 5.40011C98.4709 5.12811 98.1749 4.89611 97.7909 4.70411C97.4229 4.51211 96.9349 4.41611 96.3269 4.41611C95.4149 4.41611 94.6949 4.65611 94.1669 5.13611C93.6549 5.61611 93.3749 6.38411 93.3269 7.44011C93.2789 8.81611 93.2789 10.2081 93.3269 11.6161C93.3749 12.7361 93.6709 13.5441 94.2149 14.0401C94.7589 14.5361 95.4789 14.7841 96.3749 14.7841C96.9829 14.7841 97.5189 14.6801 97.9829 14.4721C98.4629 14.2641 98.8389 13.9441 99.1109 13.5121C99.3829 13.0641 99.5189 12.4961 99.5189 11.8081V11.3521H97.2629C97.0869 11.3521 96.9349 11.2961 96.8069 11.1841C96.6949 11.0561 96.6389 10.9041 96.6389 10.7281V8.95211C96.6389 8.77611 96.6949 8.63211 96.8069 8.52011C96.9349 8.39211 97.0869 8.32811 97.2629 8.32811H103.311C103.487 8.32811 103.631 8.39211 103.743 8.52011C103.855 8.63211 103.911 8.77611 103.911 8.95211V11.6881C103.911 13.0641 103.599 14.2401 102.975 15.2161C102.351 16.1921 101.463 16.9441 100.311 17.4721C99.1749 17.9841 97.8469 18.2401 96.3269 18.2401Z" fill="white"/>
<path d="M105.329 18.0001C105.201 18.0001 105.081 17.9521 104.969 17.8561C104.873 17.7441 104.825 17.6241 104.825 17.4961C104.825 17.4161 104.833 17.3441 104.849 17.2801L110.489 1.87211C110.537 1.69611 110.633 1.54411 110.777 1.41611C110.937 1.27211 111.153 1.20011 111.425 1.20011H114.977C115.249 1.20011 115.457 1.27211 115.601 1.41611C115.761 1.54411 115.865 1.69611 115.913 1.87211L121.529 17.2801C121.561 17.3441 121.577 17.4161 121.577 17.4961C121.577 17.6241 121.521 17.7441 121.409 17.8561C121.313 17.9521 121.193 18.0001 121.049 18.0001H118.097C117.857 18.0001 117.673 17.9441 117.545 17.8321C117.433 17.7041 117.361 17.5921 117.329 17.4961L116.393 15.0481H109.985L109.073 17.4961C109.041 17.5921 108.969 17.7041 108.857 17.8321C108.745 17.9441 108.553 18.0001 108.281 18.0001H105.329ZM110.969 11.5921H115.433L113.177 5.25611L110.969 11.5921Z" fill="white"/>
<path d="M124.069 18.0001C123.893 18.0001 123.749 17.9441 123.637 17.8321C123.525 17.7201 123.469 17.5761 123.469 17.4001V1.80011C123.469 1.62411 123.525 1.48011 123.637 1.36811C123.749 1.25611 123.893 1.20011 124.069 1.20011H126.613C126.885 1.20011 127.077 1.26411 127.189 1.39211C127.317 1.50411 127.397 1.59211 127.429 1.65611L133.285 10.8961V1.80011C133.285 1.62411 133.341 1.48011 133.453 1.36811C133.565 1.25611 133.709 1.20011 133.885 1.20011H136.765C136.941 1.20011 137.085 1.25611 137.197 1.36811C137.309 1.48011 137.365 1.62411 137.365 1.80011V17.4001C137.365 17.5601 137.309 17.7041 137.197 17.8321C137.085 17.9441 136.941 18.0001 136.765 18.0001H134.197C133.941 18.0001 133.749 17.9361 133.621 17.8081C133.509 17.6801 133.437 17.5921 133.405 17.5441L127.549 8.66411V17.4001C127.549 17.5761 127.493 17.7201 127.381 17.8321C127.269 17.9441 127.125 18.0001 126.949 18.0001H124.069Z" fill="white"/>
<path d="M141.319 18.0001C141.143 18.0001 140.999 17.9441 140.887 17.8321C140.775 17.7201 140.719 17.5761 140.719 17.4001V1.80011C140.719 1.62411 140.775 1.48011 140.887 1.36811C140.999 1.25611 141.143 1.20011 141.319 1.20011H144.487C144.647 1.20011 144.783 1.25611 144.895 1.36811C145.023 1.48011 145.087 1.62411 145.087 1.80011V14.3761H152.335C152.511 14.3761 152.655 14.4401 152.767 14.5681C152.895 14.6801 152.959 14.8241 152.959 15.0001V17.4001C152.959 17.5761 152.895 17.7201 152.767 17.8321C152.655 17.9441 152.511 18.0001 152.335 18.0001H141.319Z" fill="white"/>
<path d="M155.639 18.0001C155.463 18.0001 155.319 17.9441 155.207 17.8321C155.095 17.7201 155.039 17.5761 155.039 17.4001V1.80011C155.039 1.62411 155.095 1.48011 155.207 1.36811C155.319 1.25611 155.463 1.20011 155.639 1.20011H158.855C159.031 1.20011 159.175 1.25611 159.287 1.36811C159.399 1.48011 159.455 1.62411 159.455 1.80011V17.4001C159.455 17.5761 159.399 17.7201 159.287 17.8321C159.175 17.9441 159.031 18.0001 158.855 18.0001H155.639Z" fill="white"/>
<path d="M163.421 18.0001C163.245 18.0001 163.101 17.9441 162.989 17.8321C162.877 17.7201 162.821 17.5761 162.821 17.4001V1.80011C162.821 1.62411 162.877 1.48011 162.989 1.36811C163.101 1.25611 163.245 1.20011 163.421 1.20011H166.445C166.621 1.20011 166.765 1.25611 166.877 1.36811C166.989 1.48011 167.045 1.62411 167.045 1.80011V7.12811L171.485 1.65611C171.549 1.56011 171.653 1.46411 171.797 1.36811C171.957 1.25611 172.165 1.20011 172.421 1.20011H175.877C176.021 1.20011 176.141 1.25611 176.237 1.36811C176.333 1.46411 176.381 1.57611 176.381 1.70411C176.381 1.81611 176.349 1.91211 176.285 1.99211L170.549 9.24011L176.741 17.2081C176.805 17.2721 176.837 17.3681 176.837 17.4961C176.837 17.6241 176.781 17.7441 176.669 17.8561C176.573 17.9521 176.461 18.0001 176.333 18.0001H172.757C172.469 18.0001 172.245 17.9361 172.085 17.8081C171.941 17.6801 171.845 17.5841 171.797 17.5201L167.045 11.5921V17.4001C167.045 17.5761 166.989 17.7201 166.877 17.8321C166.765 17.9441 166.621 18.0001 166.445 18.0001H163.421Z" fill="white"/>
<path d="M179.311 18.0001C179.135 18.0001 178.991 17.9441 178.879 17.8321C178.767 17.7201 178.711 17.5761 178.711 17.4001V1.80011C178.711 1.62411 178.767 1.48011 178.879 1.36811C178.991 1.25611 179.135 1.20011 179.311 1.20011H182.479C182.639 1.20011 182.775 1.25611 182.887 1.36811C183.015 1.48011 183.079 1.62411 183.079 1.80011V14.3761H190.327C190.503 14.3761 190.647 14.4401 190.759 14.5681C190.887 14.6801 190.951 14.8241 190.951 15.0001V17.4001C190.951 17.5761 190.887 17.7201 190.759 17.8321C190.647 17.9441 190.503 18.0001 190.327 18.0001H179.311Z" fill="white"/>
<path d="M192.072 18.0001C191.944 18.0001 191.824 17.9521 191.712 17.8561C191.616 17.7441 191.568 17.6241 191.568 17.4961C191.568 17.4161 191.576 17.3441 191.592 17.2801L197.232 1.87211C197.28 1.69611 197.376 1.54411 197.52 1.41611C197.68 1.27211 197.896 1.20011 198.168 1.20011H201.72C201.992 1.20011 202.2 1.27211 202.344 1.41611C202.504 1.54411 202.608 1.69611 202.656 1.87211L208.272 17.2801C208.304 17.3441 208.32 17.4161 208.32 17.4961C208.32 17.6241 208.264 17.7441 208.152 17.8561C208.056 17.9521 207.936 18.0001 207.792 18.0001H204.84C204.6 18.0001 204.416 17.9441 204.288 17.8321C204.176 17.7041 204.104 17.5921 204.072 17.4961L203.136 15.0481H196.728L195.816 17.4961C195.784 17.5921 195.712 17.7041 195.6 17.8321C195.488 17.9441 195.296 18.0001 195.024 18.0001H192.072ZM197.712 11.5921H202.176L199.92 5.25611L197.712 11.5921Z" fill="white"/>
<path d="M210.811 18.0001C210.635 18.0001 210.491 17.9441 210.379 17.8321C210.267 17.7201 210.211 17.5761 210.211 17.4001V1.80011C210.211 1.62411 210.267 1.48011 210.379 1.36811C210.491 1.25611 210.635 1.20011 210.811 1.20011H217.339C219.403 1.20011 221.027 1.68011 222.211 2.64011C223.411 3.58411 224.011 4.92811 224.011 6.67211C224.011 7.80811 223.731 8.76811 223.171 9.55211C222.627 10.3361 221.907 10.9281 221.011 11.3281L224.323 17.2321C224.371 17.3281 224.395 17.4161 224.395 17.4961C224.395 17.6241 224.339 17.7441 224.227 17.8561C224.131 17.9521 224.011 18.0001 223.867 18.0001H220.699C220.395 18.0001 220.171 17.9281 220.027 17.7841C219.883 17.6241 219.779 17.4801 219.715 17.3521L216.979 12.0721H214.507V17.4001C214.507 17.5761 214.451 17.7201 214.339 17.8321C214.227 17.9441 214.083 18.0001 213.907 18.0001H210.811ZM214.507 8.68811H217.291C218.043 8.68811 218.603 8.50411 218.971 8.13611C219.355 7.76811 219.547 7.26411 219.547 6.62411C219.547 6.00011 219.363 5.49611 218.995 5.11211C218.643 4.72811 218.075 4.53611 217.291 4.53611H214.507V8.68811Z" fill="white"/>
<path d="M231.842 18.0001C231.666 18.0001 231.514 17.9441 231.386 17.8321C231.274 17.7201 231.218 17.5761 231.218 17.4001V15.6961C231.218 15.5841 231.25 15.4161 231.314 15.1921C231.378 14.9521 231.546 14.7281 231.818 14.5201L234.314 12.0721C235.594 11.0961 236.642 10.2721 237.458 9.60011C238.29 8.91211 238.906 8.30411 239.306 7.77611C239.706 7.24811 239.906 6.75211 239.906 6.28811C239.906 5.74411 239.762 5.29611 239.474 4.94411C239.202 4.57611 238.722 4.39211 238.034 4.39211C237.57 4.39211 237.178 4.49611 236.858 4.70411C236.554 4.89611 236.322 5.15211 236.162 5.47211C236.002 5.79211 235.89 6.12011 235.826 6.45611C235.762 6.66411 235.65 6.80811 235.49 6.88811C235.346 6.96811 235.186 7.00811 235.01 7.00811H232.01C231.866 7.00811 231.746 6.96011 231.65 6.86411C231.554 6.76811 231.506 6.64811 231.506 6.50411C231.522 5.73611 231.682 5.01611 231.986 4.34411C232.306 3.67211 232.746 3.08011 233.306 2.56811C233.882 2.04011 234.562 1.63211 235.346 1.34411C236.146 1.05611 237.042 0.912109 238.034 0.912109C239.394 0.912109 240.546 1.12811 241.49 1.56011C242.45 1.99211 243.178 2.60011 243.674 3.38411C244.17 4.15211 244.418 5.05611 244.418 6.09611C244.418 6.88011 244.242 7.61611 243.89 8.30411C243.554 8.97611 243.066 9.62411 242.426 10.2481C241.802 10.8561 241.058 11.4881 240.194 12.1441L237.986 14.3761H244.154C244.33 14.3761 244.474 14.4321 244.586 14.5441C244.714 14.6561 244.778 14.8001 244.778 14.9761V17.4001C244.778 17.5761 244.714 17.7201 244.586 17.8321C244.474 17.9441 244.33 18.0001 244.154 18.0001H231.842Z" fill="white"/>
<path d="M255.086 18.0001C254.926 18.0001 254.782 17.9441 254.654 17.8321C254.542 17.7201 254.486 17.5761 254.486 17.4001V14.6881H247.022C246.862 14.6881 246.718 14.6321 246.59 14.5201C246.478 14.4081 246.422 14.2641 246.422 14.0881V11.8081C246.422 11.6641 246.446 11.5361 246.494 11.4241C246.558 11.2961 246.622 11.1761 246.686 11.0641L253.67 1.60811C253.878 1.33611 254.174 1.20011 254.558 1.20011H258.038C258.214 1.20011 258.358 1.25611 258.47 1.36811C258.598 1.48011 258.662 1.62411 258.662 1.80011V11.1121H260.774C260.966 11.1121 261.118 11.1761 261.23 11.3041C261.342 11.4161 261.398 11.5521 261.398 11.7121V14.0881C261.398 14.2641 261.334 14.4081 261.206 14.5201C261.094 14.6321 260.958 14.6881 260.798 14.6881H258.662V17.4001C258.662 17.5761 258.598 17.7201 258.47 17.8321C258.358 17.9441 258.214 18.0001 258.038 18.0001H255.086ZM250.55 11.2801H254.582V5.61611L250.55 11.2801Z" fill="white"/>
</svg>
